<?xml version="1.0" standalone="no"?>
<!DOCTYPE svg PUBLIC "-//W3C//DTD SVG 20010904//EN"
 "http://www.w3.org/TR/2001/REC-SVG-20010904/DTD/svg10.dtd">
<svg version="1.0" xmlns="http://www.w3.org/2000/svg"
 width="200.000000pt" height="180.000000pt" viewBox="0 0 200.000000 180.000000"
 preserveAspectRatio="xMidYMid meet">

<g transform="translate(0.000000,180.000000) scale(0.100000,-0.100000)"
fill="#000000" stroke="none">
<path d="M765 1684 c-82 -36 -155 -70 -161 -75 -6 -5 -25 -6 -41 -3 -29 6
-133 -24 -353 -100 -59 -21 -65 -25 -68 -53 -3 -31 20 -59 103 -126 28 -23 35
-26 35 -12 0 9 -7 23 -15 32 -8 8 -13 19 -10 24 9 14 25 11 25 -5 0 -8 10 -25
22 -39 12 -14 22 -37 23 -52 0 -18 9 -35 27 -48 l26 -20 74 26 c40 14 74 21
76 17 2 -5 11 -6 20 -1 9 5 46 20 82 34 59 22 66 23 72 8 6 -14 7 -14 7 0 1 9
13 21 29 28 l27 12 -25 -21 -25 -21 28 12 c15 7 27 16 27 20 0 7 127 -34 221
-72 16 -6 38 -30 53 -60 25 -46 26 -50 9 -56 -10 -3 -30 -15 -45 -25 -16 -11
-33 -16 -39 -12 -8 4 -9 3 -5 -5 5 -7 -16 -22 -60 -42 -123 -55 -130 -59 -147
-93 -20 -43 -47 -52 -89 -30 -18 9 -85 36 -148 60 -103 38 -115 45 -118 68 -3
23 -6 25 -24 15 -17 -9 -35 -2 -119 50 -92 56 -99 59 -109 41 -16 -29 -12 -47
13 -65 l22 -16 -37 -34 c-34 -31 -42 -49 -39 -82 0 -7 34 -29 73 -49 40 -20
99 -57 131 -82 56 -44 59 -45 90 -33 18 7 48 19 67 26 l35 13 5 -34 c4 -27 13
-38 45 -55 22 -12 82 -43 132 -71 51 -27 97 -47 102 -44 5 4 11 3 13 -2 1 -4
35 -22 73 -39 39 -17 108 -54 155 -82 47 -28 91 -51 97 -51 7 0 79 33 160 74
175 87 172 86 198 73 17 -9 18 -8 8 5 -11 12 -9 17 12 26 14 7 25 20 25 31 0
14 27 35 98 76 187 109 202 121 202 159 0 19 -9 45 -22 61 -16 21 -19 30 -9
33 7 2 24 14 37 26 20 17 24 27 19 48 -7 29 -31 55 -55 59 -8 1 -84 -32 -168
-74 -156 -78 -182 -87 -182 -64 0 6 -15 22 -33 35 -43 28 -187 99 -250 122
l-48 17 165 81 c92 45 166 85 166 91 0 5 10 11 23 15 l22 6 -25 20 c-14 11
-31 18 -38 15 -7 -3 -10 -1 -7 5 7 12 -32 33 -47 24 -6 -4 -8 -3 -5 3 9 14
-40 46 -55 37 -7 -5 -8 -3 -3 6 6 10 4 12 -8 7 -10 -4 -16 -2 -14 5 1 6 -4 13
-12 16 -9 3 -11 0 -6 -8 4 -7 -4 -5 -18 5 -25 16 -30 15 -179 -46 -84 -34
-178 -71 -208 -82 -30 -10 -58 -24 -62 -30 -5 -8 -8 -6 -8 4 0 31 90 87 154
95 17 2 33 9 36 14 3 5 48 30 99 55 83 41 93 48 87 68 -3 12 -6 33 -6 47 0 18
-8 29 -27 37 -122 54 -215 93 -221 93 -4 0 -74 -30 -157 -66z m-414 -350 c20
-22 21 -25 4 -16 -11 6 -29 17 -40 26 -16 12 -17 15 -4 16 8 0 26 -12 40 -26z
m16 -96 c-3 -8 -6 -5 -6 6 -1 11 2 17 5 13 3 -3 4 -12 1 -19z m21 -250 c-8
-12 -20 -24 -27 -26 -7 -2 -3 7 10 22 28 32 37 34 17 4z m70 -70 c0 -30 -3
-37 -9 -25 -8 14 -3 67 6 67 2 0 3 -19 3 -42z m1032 -99 c0 -26 -5 -39 -17
-44 -10 -3 -88 -46 -175 -96 -105 -60 -167 -89 -188 -89 -49 0 -270 155 -270
190 0 10 -7 26 -16 35 -52 52 63 6 149 -59 26 -20 53 -36 60 -36 18 0 102 35
272 114 l140 64 23 -21 c15 -14 22 -32 22 -58z m-920 11 c20 -6 21 -8 5 -8
-11 0 -29 3 -40 8 -25 11 1 11 35 0z m105 -29 c2 -4 -9 -5 -26 -3 -16 2 -31 7
-34 11 -2 4 9 5 26 3 16 -2 31 -7 34 -11z"/>
<path d="M665 1270 c-3 -6 1 -7 9 -4 18 7 21 14 7 14 -6 0 -13 -4 -16 -10z"/>
<path d="M163 762 c5 -24 0 -35 -24 -58 -17 -17 -29 -38 -29 -54 0 -21 9 -30
53 -52 28 -14 97 -53 151 -86 79 -49 102 -59 117 -51 14 7 19 6 19 -3 0 -14
59 -58 77 -58 7 0 49 -18 94 -40 46 -22 90 -40 100 -40 9 0 27 -8 40 -18 13
-10 37 -26 52 -36 28 -17 29 -17 22 3 -5 16 -1 23 18 30 14 6 28 15 32 20 18
30 39 -10 21 -41 -16 -26 -11 -31 168 -141 11 -7 38 -24 59 -39 22 -16 44 -28
50 -28 5 0 15 -7 21 -16 11 -14 23 -8 101 43 50 33 130 83 180 112 49 29 94
59 100 66 5 7 83 60 173 118 89 59 162 109 162 112 0 3 -7 22 -15 42 -14 33
-17 35 -33 21 -23 -21 -42 -12 -42 19 0 16 13 38 35 59 19 18 35 37 35 42 0 5
-18 17 -40 27 l-40 18 -143 -66 c-79 -37 -149 -67 -155 -67 -12 0 -15 -20 -16
-89 -1 -33 -3 -35 -146 -111 l-145 -77 -25 21 c-14 12 -57 34 -95 50 -218 88
-215 87 -209 113 l6 24 -38 -26 c-20 -14 -42 -24 -47 -22 -6 2 -70 48 -144
103 -82 61 -133 106 -133 117 0 23 0 23 -79 -20 l-68 -37 -34 25 c-19 14 -69
47 -113 73 l-79 47 6 -29z m1600 -201 c-19 -33 -28 -38 -39 -19 -7 11 44 64
52 55 3 -2 -3 -18 -13 -36z m-1373 -14 c0 -9 -36 9 -44 22 -4 5 5 4 19 -2 14
-7 25 -16 25 -20z m1247 -34 c-9 -9 -20 -13 -24 -9 -4 4 1 14 11 22 25 18 35
8 13 -13z m45 5 c5 -13 -46 -61 -74 -71 -27 -10 -22 3 19 45 40 41 49 45 55
26z m-1174 -63 c11 -24 10 -25 -8 -15 -11 6 -20 17 -20 25 0 23 16 17 28 -10z
m222 -100 c25 -30 3 -25 -26 6 -22 24 -24 29 -8 21 11 -6 27 -18 34 -27z m60
-47 c0 -12 -14 -10 -28 4 -19 19 -14 29 8 16 11 -7 20 -16 20 -20z m55 4 c-3
-3 -11 0 -18 7 -9 10 -8 11 6 5 10 -3 15 -9 12 -12z m286 -24 c-3 -21 -6 -26
-9 -15 -3 17 3 47 11 47 2 0 1 -15 -2 -32z m-77 -44 c5 -14 4 -15 -9 -4 -17
14 -19 20 -6 20 5 0 12 -7 15 -16z m66 -44 c0 -5 -2 -10 -4 -10 -3 0 -8 5 -11
10 -3 6 -1 10 4 10 6 0 11 -4 11 -10z"/>
</g>
</svg>
